<!-- Created with Inkscape (http://www.inkscape.org/) -->
<svg width="40mm" height="40mm" version="1.1" viewBox="0 0 40 40" xmlns="http://www.w3.org/2000/svg">
 <g transform="translate(-62.462 -106.02)">
  <path d="m124.4 30.849s4.3724-0.60819 6.5291-1.9061c2.518-1.5155 3.9896-5.4704 3.9896-5.4704" display="none" fill="none" stroke="#000" stroke-width=".26458px"/>
  <path d="m131.01 80.02s-3.99-1.889-5.6593-3.7729c-1.949-2.1997-2.1694-6.4137-2.1694-6.4137" display="none" fill="none" stroke="#000" stroke-width=".26458px"/>
  <rect x="62.462" y="106.02" width="40" height="40" fill="#9990"/>
  <circle transform="scale(-1)" cx="-78.414" cy="-125" r="3.9251" stroke="#000" stroke-width=".53641"/>
  <ellipse transform="rotate(37.884)" cx="136.23" cy="50.65" rx="1.0627" ry="1.3815" fill="#fff" stroke="#000" stroke-width=".087706"/>
  <g fill="none" stroke="#000">
   <path d="m85.114 133.06c-4.758 0.41441-10.079 0.39612-14.243-0.56622" stroke-linecap="round" stroke-width=".7"/>
   <path d="m86.146 120.07c1.049 1.5128 1.6322 2.9506 1.6322 4.931-1e-5 3.6672-2.1079 6.8422-5.1782 8.3793m-9.1989-0.46698c-2.6165-1.6608-4.353-4.5838-4.3529-7.9123 1e-5 -2.3478 0.78589-4.4782 2.2132-6.1218" stroke-width=".5"/>
   <path d="m67.6 120.71c4.5253-3.6717 19.486-2.6544 22.03 2.2921" stroke-linecap="round" stroke-width=".7"/>
  </g>
  <path transform="matrix(.26458 0 0 .26458 62.462 195.63)" d="m59.352-236.92c-5.0826-0.10549-10.268-0.4358-14.623-0.93157-1.1594-0.13196-2.3754-0.26877-2.7021-0.30402-0.69207-0.0747-1.439-0.5303-3.2671-1.9928-2.9072-2.3259-5.7-5.4765-7.68-8.6636-2.7892-4.4898-4.516-9.5991-5.0366-14.903-0.15792-1.6088-0.13477-5.2882 0.04398-6.9904 0.63037-6.0027 2.6307-11.485 5.8659-16.075l0.6409-0.90942 0.90483-0.21063c5.0501-1.1756 9.5714-1.7885 15.409-2.0887 2.8036-0.14419 10.018-0.0584 12.672 0.15077 10.839 0.85394 19.809 2.8147 27.034 5.9095l1.1445 0.49026 0.71988 1.2094c2.3159 3.8906 3.64 7.8416 4.0669 12.135 0.14864 1.4948 0.12333 5.0892-0.04715 6.6969-0.4532 4.2738-1.578 8.0874-3.5187 11.93-2.7057 5.357-6.6736 9.8204-11.716 13.179-0.81051 0.53985-1.5679 1.0013-1.683 1.0254-0.57837 0.12102-12.242 0.47424-14.169 0.42908-0.32671-8e-3 -2.1533-0.0463-4.0591-0.0858zm4.0246-14.437c6.4743-1.3191 11.451-6.4187 12.569-12.88 0.22979-1.328 0.27375-3.6662 0.09223-4.9045-1.014-6.9166-6.1108-12.194-13.022-13.483-1.2304-0.22949-4.2147-0.22949-5.4451 0-3.1809 0.59329-5.9543 1.9932-8.2326 4.1557-3.4724 3.2959-5.2366 7.9091-4.8737 12.744 0.29145 3.8831 1.8327 7.2104 4.6338 10.003 2.6502 2.6425 5.5 4.0107 9.5615 4.5904 0.75169 0.10729 3.7956-0.0392 4.7176-0.22709z" fill="#fff"/>
 </g>
</svg>
