<?xml version="1.0" encoding="UTF-8"?>
<!-- Created with Inkscape (http://www.inkscape.org/) -->
<svg width="40mm" height="40mm" version="1.1" viewBox="0 0 40 40" xmlns="http://www.w3.org/2000/svg" >
 <defs>
  <clipPath id="clipPath92906-2-7-0">
   <path d="m29.141 36.819 8.7396-1.89 0.38578-1.7393-3.8875-2.6901-5.1745 1.7595-0.80993 3.3109z" fill="none" stroke="#000" stroke-width=".26514px"/>
  </clipPath>
 </defs>
 <g transform="translate(-107.25 -58.87)">
  <path d="m124.4 30.849s4.3724-0.60819 6.5291-1.9061c2.518-1.5155 3.9896-5.4704 3.9896-5.4704" display="none" fill="none" stroke="#000" stroke-width=".26458px"/>
  <path d="m131.01 80.02s-3.99-1.889-5.6593-3.7729c-1.949-2.1997-2.1694-6.4137-2.1694-6.4137" display="none" fill="none" stroke="#000" stroke-width=".26458px"/>
  <g transform="translate(89.652 -92.231)">
   <rect x="17.601" y="151.1" width="40" height="40" fill="#9990"/>
   <path d="m47.391 163.85c1.7397 2.8751 2.4477 6.7258 1.6574 10.514-0.7557 3.6228-2.7201 6.415-5.1865 7.8525m-8.8521-0.76564c-3.3964-2.7349-5.1636-8.087-4.072-13.32 0.51723-2.4796 1.6007-4.5701 3.0238-6.1034" fill="none" stroke="#000" stroke-linecap="round" stroke-width=".84788"/>
   <path d="m48.363 171.28c0 2.4133-1.614 4.3696-3.605 4.3696s-3.605-1.9564-3.605-4.3696c0-1.4237 0.56173-2.6884 1.4312-3.4862 2.4152 0.25258 3.0104 0.3979 4.8626 0.57553 0.56975 0.77277 0.91612 1.7927 0.91612 2.9106z" stroke="#000" stroke-width=".54239"/>
   <g fill="none">
    <ellipse transform="matrix(1.9514 .67165 -.44623 2.1392 -9.116 68.332)" cx="33.745" cy="37.515" rx="4.6404" ry="5.4374" clip-path="url(#clipPath92906-2-7-0)"/>
    <g stroke="#000">
     <path d="m31.32 166.67 17.898 1.827" stroke-width=".56084px"/>
     <path d="m32.897 179.36 12.364 1.6347" stroke-width=".55662"/>
     <path d="m37.207 162.06c-0.97237 0.53754-2.303-0.41422-3.3337-1.2937" stroke-width=".5125"/>
     <path d="m48.186 162.54c-0.97236-0.53754-2.303 0.41422-3.3337 1.2937" stroke-width=".5125"/>
    </g>
   </g>
   <path transform="scale(.26458)" d="m148.26 679.91-21.851-2.9095-1.0682-1.6485c-1.5742-2.4294-3.9942-7.4707-4.9776-10.369-1.8016-5.3105-2.6447-10.066-2.8377-16.006-0.18318-5.637 0.24884-9.7199 1.6303-15.407l0.57846-2.3815 0.90245 0.12498c0.49635 0.0687 9.1355 0.96185 19.198 1.9847s18.344 1.9076 18.402 1.966c0.0585 0.0585-0.14999 0.44242-0.46328 0.85317-0.93195 1.2218-2.3067 4.3876-2.816 6.4846-0.59388 2.4452-0.6449 6.6577-0.10997 9.0782 1.6749 7.5788 6.9935 12.826 13.423 13.242 2.489 0.16126 4.2387-0.18551 6.5623-1.3006 1.4654-0.70321 2.2311-1.2652 3.664-2.689 2.1207-2.1073 3.3559-4.0898 4.2864-6.8798 0.91993-2.7582 1.2046-4.8407 1.0561-7.7253-0.14036-2.7264-0.73062-5.2898-1.6904-7.3408l-0.64568-1.3799h0.62313c0.34273 0 0.92314 0.06 1.2898 0.13333 0.63445 0.12689 0.67922 0.20958 0.92648 1.711 0.46405 2.8179 0.54401 10.688 0.14359 14.133-1.0466 9.0054-4.2849 17.587-9.0437 23.965-1.7782 2.3832-4.5309 5.3208-4.961 5.2941-0.20434-0.0127-10.204-1.3323-22.222-2.9326z" fill="#fff"/>
  </g>
 </g>
</svg>
