<svg width="40mm" height="40mm" version="1.1" viewBox="0 0 40 40" xmlns="http://www.w3.org/2000/svg">
  <g transform="translate(-17.385 -58.819)">
    <path d="m124.4 30.849s4.3724-0.60819 6.5291-1.9061c2.518-1.5155 3.9896-5.4704 3.9896-5.4704" display="none" fill="none" stroke="#000" stroke-width=".26458px"/>
    <path d="m131.01 80.02s-3.99-1.889-5.6593-3.7729c-1.949-2.1997-2.1694-6.4137-2.1694-6.4137" display="none" fill="none" stroke="#000" stroke-width=".26458px"/>
    <g transform="translate(-135.23 -92.282)">
      <rect x="152.66" y="151.2" width="39.951" height="39.897" fill="#9990"/>
      <g stroke="#000" stroke-width=".53428px">
        <path d="m163.89 165.98c2.1953-3.0159 7.4649-2.8121 11.197-2.7051 3.5476 0.10168 8.7574 0.27632 10.61 3.2996 2.6461 4.3189-2.1284 11.748-5.7639 14.056-3.4578 2.1958-9.3011 1.2959-12.187-1.6091-2.9599-2.9794-6.5245-9.3754-3.8555-13.042z"/>
        <path d="m185.69 166.58 6.4004-15.371" fill="none"/>
        <path d="m165.62 173.01-12.959-2.4078" fill="none"/>
      </g>
    </g>
  </g>
</svg>
