<!-- Created with Inkscape (http://www.inkscape.org/) -->
<svg width="40mm" height="40mm" version="1.1" viewBox="0 0 40 40" xmlns="http://www.w3.org/2000/svg">
 <g transform="translate(-17.385 -106.02)">
  <path d="m124.4 30.849s4.3724-0.60819 6.5291-1.9061c2.518-1.5155 3.9896-5.4704 3.9896-5.4704" display="none" fill="none" stroke="#000" stroke-width=".26458px"/>
  <path d="m131.01 80.02s-3.99-1.889-5.6593-3.7729c-1.949-2.1997-2.1694-6.4137-2.1694-6.4137" display="none" fill="none" stroke="#000" stroke-width=".26458px"/>
  <g transform="matrix(-1 0 0 1 74.769 0)">
   <rect transform="scale(-1)" x="-57.385" y="-146.02" width="40" height="40" fill="#9990"/>
   <path d="m51.634 128.31c0.0228-0.0694 0.0113-0.0984 0.0164-0.14769 0.0356-0.34176 0.0546-0.68426 0.0554-0.97899 0-3.243-1.7011-6.0886-4.2597-7.6933-0.0633-0.0397-0.17267-0.033-0.19137-0.11675m-10.411 0.82002c-0.0211 0.0736-0.0965 0.0808-0.14414 0.12201-1.9251 1.664-3.1432 4.1237-3.1432 6.868 0 0.35901 0.0208 0.71314 0.0614 1.0613" fill="none" stroke="#000" stroke-width=".551"/>
   <path d="m35.837 120.13c1.6499 9e-3 4.5153 0.0417 6.1617-0.0655 1.5033-0.0979 3.5388-0.44364 5.209-0.69662 0.0578-9e-3 0.11519-0.0174 0.17209-0.0259 0.26515-0.0397 0.51999-0.0767 0.76075-0.10951" fill="none" stroke="#000" stroke-linecap="round" stroke-width=".7"/>
   <path d="m46.446 119.75c-2.627 0.41411-3.7681 0.55133-5.0612 0.60863-0.62229 0.0276-2.941 0.0563-3.6632 0.0453-0.59615-9e-3 -0.66661-7e-3 -0.68712 0.0175-0.0126 0.0151-0.081 0.0705-0.15205 0.12308-0.16931 0.12521-0.73567 0.69327-0.96155 0.96446-1.0664 1.2802-1.7202 2.711-1.9756 4.3231-0.0762 0.4811-0.0944 0.74561-0.0954 1.3863-5.3e-4 0.33712 4e-3 0.61832 0.011 0.62487 7e-3 7e-3 0.11095-0.0229 0.232-0.0653 1.203-0.42239 2.9305-0.65785 5.3844-0.7339 0.30719-0.01 1.1192-0.0249 1.8045-0.0341 1.3641-0.0185 1.4846-0.0216 2.6294-0.0697 2.1121-0.0887 3.0139-0.0864 4.0214 0.0102 1.2511 0.11994 2.3192 0.41334 3.1364 0.86152 0.11342 0.0622 0.22794 0.12835 0.25447 0.14697 0.0265 0.0186 0.051 0.0311 0.0544 0.0277 0.0131-0.0133 0.0434-0.58655 0.0434-0.82278 2.7e-4 -2.7449-1.3126-5.3546-3.5316-7.0196-0.39743-0.29821-0.72667-0.49353-0.82299-0.48821-0.0199 1e-3 -0.29923 0.0434-0.6206 0.0941z" fill="#fff"/>
   <path d="m42.308 127.34c-0.0755-0.52827-0.055-1.0824 0.077-1.6325 0.50218-2.0939 2.4286-3.3365 4.3027-2.7754 1.6379 0.49033 2.6938 2.4859 2.5988 4.3058" fill="none" stroke="#000" stroke-width=".5"/>
   <path d="m49.029 127.17c-0.47108-0.0983-1.2695-0.16518-2.2141-0.18541-0.97454-0.0209-3.8897 0.0434-4.2982 0.0948l-0.17356 0.0218v-0.30344c0-1.233 0.59402-2.4769 1.5139-3.17 0.6056-0.45634 1.2004-0.66329 1.9165-0.6668 1.2337-6e-3 2.2691 0.71197 2.9304 2.0321 0.29911 0.59716 0.51495 1.4526 0.49177 1.9491l-0.01214 0.2601z"/>
   <path d="m42.994 127.13c-0.09279-0.4344-0.07432-0.8366 0.05047-1.341 0.27631-1.1167 1.0351-1.7842 1.6949-1.4909l-4.9e-5 -1e-5c0.54544 0.24248 0.4573 1.2378 0.39729 1.6359-0.04709 0.31239-0.15253 0.58225-0.3645 1.2083" fill="#fff" stroke="#000" stroke-width=".090567"/>
   <path d="m32.363 129.27c1.3898-2.2733 7.7332-1.9295 10.759-2.0422 3.119-0.11618 6.9745-0.51284 9.0827 1.7823" fill="none" stroke="#000" stroke-linecap="round" stroke-width=".7"/>
  </g>
 </g>
</svg>
