<svg width="40mm" height="40mm" version="1.1" viewBox="0 0 40 40" xmlns="http://www.w3.org/2000/svg">
  <g transform="translate(-62.462 -12.755)">
    <path d="m124.4 30.849s4.3724-0.60819 6.5291-1.9061c2.518-1.5155 3.9896-5.4704 3.9896-5.4704" display="none" fill="none" stroke="#000" stroke-width=".26458px"/>
    <path d="m131.01 80.02s-3.99-1.889-5.6593-3.7729c-1.949-2.1997-2.1694-6.4137-2.1694-6.4137" display="none" fill="none" stroke="#000" stroke-width=".26458px"/>
    <rect x="62.462" y="12.755" width="40" height="40" fill="#9990"/>
    <g transform="rotate(-29.361 78.793 35.397)">
      <path d="m72.624 43.96c-3.2067-2.4335-4.7967-6.6492-3.6905-10.778 1.4591-5.4454 7.0563-8.677 12.502-7.2179 5.4454 1.4591 8.677 7.0563 7.2179 12.502-0.63752 2.3793-2.065 4.3359-3.9247 5.6633" fill="none" stroke="#000" stroke-width=".5"/>
      <circle cx="77.419" cy="30.001" r="1.2572" opacity="0" stroke-width=".5886"/>
      <g stroke="#000">
        <circle cx="76.99" cy="33.844" r="7.3426" stroke-width=".5"/>
        <ellipse cx="77.385" cy="30.547" rx="3.2432" ry="3.081" fill="#fff" stroke-linecap="round" stroke-width=".14557"/>
        <ellipse transform="matrix(-.9971 -.076112 .74328 .66898 0 0)" cx="-33.82" cy="54.321" rx="1.3321" ry="2.1618" fill="#fff" stroke-width=".12284"/>
        <path d="m70.381 43.425c2.7569 0.55137 5.4593 1.6235 8.2706 1.6541 2.8931 0.03154 5.6975-1.0108 8.5463-1.5163" fill="none" stroke-linecap="round" stroke-width=".7"/>
      </g>
      <path d="m76.442 44.455c-1.1998-0.21239-3.5868-0.80404-3.9024-0.96725-0.35047-0.18123-1.4704-1.4067-1.9636-2.1485-0.84413-1.2698-1.3831-2.6546-1.5937-4.0943-0.14626-1.0004-0.06395-2.7723 0.17259-3.7153l0.19209-0.76574 0.05167 1.2494c0.04183 1.012 0.09192 1.3841 0.2636 1.9584 1.0562 3.5335 4.3846 5.7928 8.0383 5.4562 3.1939-0.29417 5.8386-2.539 6.6934-5.6817 0.24977-0.91822 0.253-2.8608 0.0063-3.7599-0.62854-2.2903-2.0105-3.98-4.0782-4.9863-0.95049-0.46257-1.8477-0.69604-2.9867-0.7772-0.93512-0.06663-0.81436-0.12338 0.57203-0.26887 2.9904-0.31381 6.2889 1.0014 8.3098 3.3134 1.7928 2.0509 2.7295 4.9068 2.4434 7.4493-0.27956 2.4845-1.1822 4.3806-2.8985 6.0886l-0.85669 0.85258-1.0882 0.255c-2.5921 0.60744-3.5255 0.74181-5.0977 0.73385-0.90329-0.0046-1.5079-0.05546-2.2776-0.19172z" fill="#fff"/>
    </g>
  </g>
</svg>
