<!-- Created with Inkscape (http://www.inkscape.org/) -->
<svg width="40mm" height="40mm" version="1.1" viewBox="0 0 40 40" xmlns="http://www.w3.org/2000/svg">
 <g transform="translate(-107.54 -58.87)">
  <path d="m124.4 30.849s4.3724-0.60819 6.5291-1.9061c2.518-1.5155 3.9896-5.4704 3.9896-5.4704" display="none" fill="none" stroke="#000" stroke-width=".26458px"/>
  <path d="m131.01 80.02s-3.99-1.889-5.6593-3.7729c-1.949-2.1997-2.1694-6.4137-2.1694-6.4137" display="none" fill="none" stroke="#000" stroke-width=".26458px"/>
  <g transform="matrix(-1 0 0 1 350.15 -.89552)">
   <rect x="202.61" y="59.766" width="40" height="40" fill="#9990"/>
   <g fill="none" stroke="#000">
    <path d="m225.26 86.811c-4.758 0.4144-10.079 0.39612-14.243-0.56623" stroke-linecap="round" stroke-width=".7"/>
    <path d="m226.3 73.812c1.049 1.5128 1.6322 2.9506 1.6322 4.931-1e-5 3.6672-2.1079 6.8422-5.1782 8.3793m-9.1989-0.46698c-2.6165-1.6608-4.353-4.5838-4.3529-7.9123 1e-5 -2.3478 0.78589-4.4782 2.2132-6.1218" stroke-width=".5"/>
    <path d="m209.4 73.807c4.6119-3.6717 16.335-2.9608 18.928 1.9857" stroke-linecap="round" stroke-width=".70667"/>
   </g>
   <ellipse transform="scale(-1)" cx="-214.81" cy="-76.054" rx="3.7019" ry="4.1766" stroke="#000" stroke-width=".56096"/>
   <path d="m215.8 73.066c-0.66497 0.24248-0.93696 0.94494-0.48436 1.6359 0.2981 0.45508 0.3898 0.69686 0.44438 1.3023 0.047 0.52176 0.45553 1.399 1.2599 1.1057 0.80431-0.29331 1.1832-1.4364 0.84638-2.5531-0.33686-1.1167-1.262-1.7842-2.0663-1.4909z" fill="#fff" stroke="#000" stroke-width=".1"/>
   <path transform="matrix(.26458 0 0 .26458 62.462 106.02)" d="m583.46-73.295c-2.9646-0.15772-7.5844-0.55723-10.626-0.91894l-1.808-0.21499-1.7782-1.3395c-7.0891-5.3402-11.777-13.225-13.272-22.323-0.39115-2.3806-0.29428-8.6305 0.1733-11.182 0.74539-4.0673 2.0281-7.684 3.869-10.909 1.6537-2.8972 2.7636-4.3199 3.6744-4.7098 1.6502-0.70652 1.69-0.68623 0.79921 0.40737-5.4776 6.725-4.9112 17.703 1.2301 23.844 4.9678 4.9678 12.463 5.673 18.217 1.714 5.2543-3.6151 8.0498-11.235 6.6309-18.074-1.0061-4.8494-3.7241-8.8427-7.6139-11.187l-1.14-0.68695 1.9582-0.13454c2.569-0.17649 8.1957 7e-3 11.504 0.37429 8.6044 0.95646 15.862 3.1554 21.782 6.5993 0.99981 0.58166 1.286 0.88309 2.2477 2.3677 3.9275 6.0627 5.5036 12.208 4.9155 19.167-0.48747 5.7686-2.1352 10.793-5.1104 15.584-2.5353 4.0822-6.9251 8.5055-10.742 10.824l-1.073 0.65178-3.328 0.16942c-3.9678 0.20199-16.54 0.18737-20.51-0.02385z" fill="#fff"/>
  </g>
 </g>
</svg>
