<svg width="40mm" height="40mm" version="1.1" viewBox="0 0 40 40" xmlns="http://www.w3.org/2000/svg">
  <g transform="translate(-107.54 -58.87)">
    <path d="m124.4 30.849s4.3724-0.60819 6.5291-1.9061c2.518-1.5155 3.9896-5.4704 3.9896-5.4704" display="none" fill="none" stroke="#000" stroke-width=".26458px"/>
    <path d="m131.01 80.02s-3.99-1.889-5.6593-3.7729c-1.949-2.1997-2.1694-6.4137-2.1694-6.4137" display="none" fill="none" stroke="#000" stroke-width=".26458px"/>
    <g transform="matrix(-1 0 0 1 255.08 0)">
      <rect transform="scale(-1,1)" x="-147.54" y="58.87" width="40" height="40" fill="#9990"/>
      <g fill="none" stroke="#000">
        <path d="m124.89 85.916c4.758 0.4144 10.079 0.39612 14.243-0.56623" stroke-linecap="round" stroke-width=".7"/>
        <path d="m123.85 72.916c-1.049 1.5128-1.6322 2.9506-1.6322 4.931 1e-5 3.6672 2.1079 6.8422 5.1782 8.3793m9.1989-0.46698c2.6165-1.6608 4.353-4.5838 4.3529-7.9123-1e-5 -2.3478-0.78589-4.4782-2.2132-6.1218" stroke-width=".5"/>
        <path d="m140.75 72.911c-4.6119-3.6717-16.335-2.9608-18.928 1.9857" stroke-linecap="round" stroke-width=".70667"/>
      </g>
      <ellipse transform="scale(1,-1)" cx="135.34" cy="-75.159" rx="3.7019" ry="4.1766" stroke="#000" stroke-width=".56096"/>
      <path d="m134.35 72.171c0.66497 0.24248 0.93696 0.94494 0.48436 1.6359-0.2981 0.45508-0.3898 0.69686-0.44438 1.3023-0.047 0.52176-0.45553 1.399-1.2599 1.1057-0.80431-0.29331-1.1832-1.4364-0.84638-2.5531 0.33686-1.1167 1.262-1.7842 2.0663-1.4909z" fill="#fff" stroke="#000" stroke-width=".1"/>
      <path d="m133.32 85.731c0.78439-0.04173 2.0067-0.14743 2.8115-0.24314l0.47836-0.05688 0.47048-0.3544c1.8757-1.4129 3.1159-3.499 3.5114-5.9063 0.10349-0.62986 0.0779-2.2835-0.0459-2.9585-0.19722-1.0761-0.5366-2.0331-1.0237-2.8864-0.43756-0.76656-0.73121-1.143-0.97219-1.2461-0.4366-0.18693-0.44713-0.18156-0.21145 0.10778 1.4493 1.7793 1.2994 4.6839-0.32548 6.3088-1.3144 1.3144-3.2975 1.501-4.82 0.4535-1.3902-0.95648-2.1298-2.9726-1.7544-4.7821 0.26621-1.2831 0.98534-2.3396 2.0145-2.9598l0.30162-0.18176-0.5181-0.0356c-0.67971-0.0467-2.1685 0.0019-3.0437 0.09903-2.2766 0.25306-4.1969 0.83487-5.7632 1.7461-0.26453 0.1539-0.34025 0.23365-0.5947 0.62644-1.0391 1.6041-1.4562 3.2301-1.3006 5.0713 0.12898 1.5263 0.56494 2.8557 1.3521 4.1232 0.67079 1.0801 1.8323 2.2504 2.8422 2.864l0.28389 0.17245 0.88052 0.04483c1.0498 0.05344 4.3761 0.04957 5.4266-0.0063z" fill="#fff"/>
    </g>
  </g>
</svg>
