<!-- Created with Inkscape (http://www.inkscape.org/) -->
<svg width="40mm" height="40mm" version="1.1" viewBox="0 0 40 40" xmlns="http://www.w3.org/2000/svg">
 <g transform="translate(-17.385 -106.02)">
  <path d="m124.4 30.849s4.3724-0.60819 6.5291-1.9061c2.518-1.5155 3.9896-5.4704 3.9896-5.4704" display="none" fill="none" stroke="#000" stroke-width=".26458px"/>
  <path d="m131.01 80.02s-3.99-1.889-5.6593-3.7729c-1.949-2.1997-2.1694-6.4137-2.1694-6.4137" display="none" fill="none" stroke="#000" stroke-width=".26458px"/>
  <rect transform="scale(-1,1)" x="-57.385" y="106.02" width="40" height="40" fill="#9990"/>
  <g fill="none" stroke="#000">
   <path d="m51.634 123.73c0.0228 0.0694 0.0113 0.0984 0.0164 0.14769 0.0356 0.34176 0.0546 0.68426 0.0554 0.97899 0 3.243-1.7011 6.0886-4.2597 7.6933-0.0633 0.0397-0.17267 0.033-0.19137 0.11675m-10.411-0.82002c-0.0211-0.0736-0.0965-0.0808-0.14414-0.12201-1.9251-1.664-3.1432-4.1237-3.1432-6.868 0-0.35901 0.0208-0.71314 0.0614-1.0613" stroke-width=".551"/>
   <path d="m32.363 122.76c1.3898 2.2733 7.7332 1.9295 10.759 2.0422 3.119 0.11618 6.9745 0.51284 9.0827-1.7823" stroke-linecap="round" stroke-width=".5"/>
   <path d="m35.837 131.9c1.6499-9e-3 4.5153-0.0417 6.1617 0.0655 1.5033 0.0979 3.5388 0.44364 5.209 0.69662 0.0578 9e-3 0.11519 0.0174 0.17209 0.0259 0.26515 0.0397 0.51999 0.0767 0.76075 0.10951" stroke-linecap="round" stroke-width=".5"/>
  </g>
  <path d="m46.446 132.29c-2.627-0.41411-3.7681-0.55133-5.0612-0.60863-0.62229-0.0276-2.941-0.0563-3.6632-0.0453-0.59616 9e-3 -0.66662 7e-3 -0.68712-0.0175-0.01257-0.0151-0.08099-0.0705-0.15205-0.12308-0.16932-0.12521-0.73567-0.69327-0.96155-0.96446-1.0664-1.2802-1.7202-2.711-1.9756-4.3231-0.07621-0.4811-0.09442-0.74561-0.09544-1.3863-5.29e-4 -0.33712 0.0044-0.61832 0.01095-0.62487 0.0066-7e-3 0.11096 0.0229 0.232 0.0653 1.203 0.42239 2.9305 0.65785 5.3844 0.7339 0.30719 0.01 1.1192 0.0249 1.8045 0.0341 1.3641 0.0185 1.4846 0.0216 2.6294 0.0697 2.1121 0.0887 3.0139 0.0864 4.0214-0.0102 1.2511-0.11994 2.3192-0.41334 3.1364-0.86152 0.11343-0.0622 0.22794-0.12835 0.25448-0.14697 0.02654-0.0186 0.051-0.0311 0.05437-0.0277 0.01315 0.0133 0.0434 0.58655 0.04343 0.82278 2.65e-4 2.7449-1.3126 5.3546-3.5316 7.0196-0.39743 0.29821-0.72668 0.49353-0.82299 0.48821-0.01995-1e-3 -0.29923-0.0434-0.6206-0.0941z" fill="#fff"/>
  <path d="m38.314 124.7c-0.0843 0.52827-0.0614 1.0824 0.086 1.6325 0.56106 2.0939 2.7133 3.3365 4.8072 2.7754 1.9113-0.51214 3.1134-2.3501 2.8817-4.2593" fill="none" stroke="#000" stroke-width=".53641"/>
  <path d="m41.059 128.86c-1.4968-0.49031-2.6797-2.0511-2.6803-3.5363l-1.8e-4 -0.42974 2.962 0.0759c1.6291 0.0418 3.3585 0.0821 3.8432 0.0897l0.88119 0.0138-0.0821 0.56843c-0.18481 1.2798-0.98869 2.394-2.159 2.9924-0.72104 0.36867-2.0077 0.4737-2.7648 0.22568z"/>
  <path d="m40.031 125.4c-0.02202 0.25782-0.36129 0.44806-0.77783 0.42324-0.41653-0.0248-0.7313-0.25414-0.73057-0.51309 1e-3 -0.38576 0.34036-0.27622 0.7569-0.25141 0.41653 0.0248 0.78113-3e-3 0.7515 0.34126z" fill="#fff" stroke="#000" stroke-width=".10423"/>
 </g>
</svg>
