<!-- Created with Inkscape (http://www.inkscape.org/) -->
<svg width="40mm" height="40mm" version="1.1" viewBox="0 0 40 40" xmlns="http://www.w3.org/2000/svg">
 <g transform="translate(-17.385 -12.755)">
  <path d="m124.4 30.849s4.3724-0.60819 6.5291-1.9061c2.518-1.5155 3.9896-5.4704 3.9896-5.4704" display="none" fill="none" stroke="#000" stroke-width=".26458px"/>
  <path d="m131.01 80.02s-3.99-1.889-5.6593-3.7729c-1.949-2.1997-2.1694-6.4137-2.1694-6.4137" display="none" fill="none" stroke="#000" stroke-width=".26458px"/>
  <rect transform="scale(-1,1)" x="-57.385" y="12.755" width="40" height="40" fill="#9990"/>
  <path d="m40.873 43.96c3.2067-2.4335 4.7967-6.6492 3.6905-10.778-1.4591-5.4454-7.0563-8.677-12.502-7.2179-5.4454 1.4591-8.677 7.0563-7.2179 12.502 0.63752 2.3793 2.065 4.3359 3.9247 5.6633" fill="none" stroke="#000" stroke-width=".5"/>
  <circle transform="scale(-1,1)" cx="-35.347" cy="30.73" r="1.2572" opacity="0" stroke-width=".5886"/>
  <g stroke="#000">
   <circle transform="scale(-1,1)" cx="-35.576" cy="34.572" r="7.3426" stroke-width=".5"/>
   <ellipse transform="scale(-1,1)" cx="-35.382" cy="31.276" rx="3.2432" ry="3.081" fill="#fff" stroke-linecap="round" stroke-width=".14557"/>
   <ellipse transform="matrix(.9971 -.076112 -.74328 .66898 0 0)" cx="90.643" cy="69.57" rx="1.3321" ry="2.1618" fill="#fff" stroke-width=".12284"/>
   <path d="m43.116 43.425c-2.7569 0.55137-5.4593 1.6235-8.2706 1.6541-2.8931 0.03154-5.6975-1.0108-8.5463-1.5163" fill="none" stroke-linecap="round" stroke-width=".7"/>
  </g>
  <path d="m35.761 44.666c1.1463-0.10788 2.4752-0.38447 4.7025-0.9788 0.56616-0.15107 0.57696-0.15839 1.2913-0.87508 1.0904-1.0941 1.9162-2.443 2.3889-3.9023 0.36228-1.1184 0.48784-1.9165 0.4869-3.0949-5.3e-4 -0.63171-0.01678-0.89664-0.08237-1.3417-0.26974-1.83-0.99327-3.4992-2.1246-4.9017-0.38362-0.47557-1.1863-1.2583-1.6619-1.6206-1.3568-1.0336-2.9694-1.7117-4.6966-1.9749-0.5816-0.08865-1.7035-0.1086-2.3315-0.04148-2.3277 0.24878-4.4057 1.2279-6.0199 2.8363-1.6021 1.5965-2.6047 3.6498-2.8891 5.9171-0.06039 0.48146-0.06078 1.7679-6.88e-4 2.2541 0.22683 1.8348 0.90827 3.5035 2.0339 4.9806 0.31631 0.41509 1.1547 1.2757 1.5327 1.5733l0.25045 0.19717 1.0734 0.25337c1.8364 0.4335 2.7524 0.60226 3.8277 0.70528 0.6016 0.05763 1.6844 0.06462 2.2189 0.01431zm-1.2888-2.5692c-2.2594-0.33242-4.2113-1.6258-5.4042-3.5808-1.513-2.4797-1.4497-5.7071 0.15967-8.1395 0.45359-0.68555 1.1229-1.3984 1.7651-1.8801 2.4892-1.867 5.8518-2.0421 8.5071-0.44309 1.0431 0.62817 1.9488 1.5321 2.5968 2.5918 1.3297 2.1746 1.4438 5.0168 0.29344 7.3137-1.1393 2.2749-3.2316 3.7765-5.7883 4.1542-0.49098 0.07252-1.5834 0.06426-2.1296-0.01611z" fill="#fff"/>
 </g>
</svg>
