<?xml version="1.0" encoding="UTF-8"?>
<!-- Created with Inkscape (http://www.inkscape.org/) -->
<svg width="40mm" height="40mm" version="1.1" viewBox="0 0 40 40" xmlns="http://www.w3.org/2000/svg" >
 <g transform="translate(-18.028 -106.02)">
  <path d="m124.4 30.849s4.3724-0.60819 6.5291-1.9061c2.518-1.5155 3.9896-5.4704 3.9896-5.4704" display="none" fill="none" stroke="#000" stroke-width=".26458px"/>
  <path d="m131.01 80.02s-3.99-1.889-5.6593-3.7729c-1.949-2.1997-2.1694-6.4137-2.1694-6.4137" display="none" fill="none" stroke="#000" stroke-width=".26458px"/>
  <g transform="matrix(-1 0 0 1 75.742 -.52918)">
   <rect x="17.714" y="106.55" width="40" height="40" fill="#9990"/>
   <path d="m40.485 131.8c-0.79376-0.80154-1.299-2.0087-1.2989-3.3588-2.7e-5 -2.4133 1.614-4.3696 3.6049-4.3696 1.991 0 3.605 1.9564 3.605 4.3696-1.1e-5 1.6954-0.79659 3.1654-1.9609 3.8898" stroke="#000" stroke-width=".54239"/>
   <g fill="none">
    <path d="m42.451 139.63c1.3455-0.34366 2.4587-0.62959 2.4737-0.63539 0.01497-6e-3 -0.25292-0.38609-0.59536-0.84508-0.34244-0.45899-0.62263-0.8418-0.62263-0.8507 0-9e-3 0.19399-0.14532 0.43111-0.30317 0.446-0.29691 0.52978-0.37141 0.41768-0.37141-0.07355 0-10.156-1.3273-10.342-1.3616-0.0655-0.0121-0.11907-6e-3 -0.11907 0.0135 0 0.063 1.0222 1.0602 1.293 1.2613 0.14428 0.10718 0.26294 0.2046 0.2637 0.2165 7.59e-4 0.0119-0.24236 0.2989-0.54025 0.63776l-0.54163 0.61612 0.14147 0.0591c0.07782 0.0326 0.36068 0.15166 0.62859 0.26476l0.48711 0.2057v1.7238h1.3423v-0.56288c0-0.30959 0.0164-0.56289 0.03665-0.56289 0.02009 0 0.63468 0.2533 1.3656 0.56289s1.3526 0.56142 1.3814 0.55962c0.02884-2e-3 1.1533-0.28444 2.4988-0.6281z" stroke-width="0"/>
    <path d="m42.451 139.63c1.3455-0.34366 2.4587-0.62959 2.4737-0.63539 0.01497-6e-3 -0.25292-0.38609-0.59536-0.84508-0.34244-0.45899-0.62263-0.8418-0.62263-0.8507 0-9e-3 0.19399-0.14532 0.43111-0.30317 0.446-0.29691 0.52978-0.37141 0.41768-0.37141-0.07355 0-10.156-1.3273-10.342-1.3616-0.0655-0.0121-0.11907-6e-3 -0.11907 0.0135 0 0.063 1.0222 1.0602 1.293 1.2613 0.14428 0.10718 0.26294 0.2046 0.2637 0.2165 7.59e-4 0.0119-0.24236 0.2989-0.54025 0.63776l-0.54163 0.61612 0.14147 0.0591c0.07782 0.0326 0.36068 0.15166 0.62859 0.26476l0.48711 0.2057v1.7238h1.3423v-0.56288c0-0.30959 0.0164-0.56289 0.03665-0.56289 0.02009 0 0.63468 0.2533 1.3656 0.56289s1.3526 0.56142 1.3814 0.55962c0.02884-2e-3 1.1533-0.28444 2.4988-0.6281z" stroke-width="0"/>
    <path d="m31.047 123.54c0.08991-0.43096 0.19695-0.85013 0.35804-1.2419l17.894 1.8523c0.27438 1.819 0.2538 3.7288-0.14134 5.6231-0.20467 0.98097-0.51797 1.9138-0.89131 2.781l-16.968-1.6864c-0.63935-2.2569-0.77717-4.8063-0.25113-7.3281z" stroke="#000" stroke-linecap="round" stroke-width=".82001"/>
   </g>
   <path d="m38.247 131.13c-0.78283-0.0786-2.5868-0.25875-4.0087-0.40033-1.422-0.14156-2.5909-0.26289-2.5976-0.26959-0.03819-0.0382-0.24966-1.0301-0.31882-1.4953-0.2708-1.8217-0.22175-3.6115 0.14673-5.3546 0.07243-0.34257 0.19983-0.83272 0.22114-0.85233 0.0056-5e-3 2.3459 0.23356 5.2014 0.52962 2.8555 0.29608 5.2222 0.53922 5.2595 0.54032 0.03735 6.5e-4 -0.04188 0.0311-0.17619 0.0656-1.0677 0.27884-1.9458 1.0281-2.5096 2.1432-0.7752 1.5331-0.74116 3.5152 0.0855 4.9816 0.07522 0.13348 0.13298 0.24533 0.12822 0.24859-0.0043 3e-3 -0.64906-0.0584-1.4319-0.137z" fill="#fff"/>
   <path d="m46.733 131.97c-0.61883-0.0644-1.1597-0.11784-1.202-0.1188l-0.07686-2e-3 0.13444-0.16942c1.2349-1.5566 1.442-3.8794 0.50756-5.6952-0.41729-0.81097-1.0499-1.4577-1.7946-1.8348-0.12838-0.0649-0.18843-0.10764-0.15268-0.1079 0.0838-9.2e-4 4.7601 0.48541 4.7709 0.49613 5e-3 5e-3 0.02684 0.17263 0.0489 0.37282 0.25995 2.3631-0.04271 4.7786-0.86669 6.918-0.0939 0.24383-0.10733 0.26409-0.17278 0.26115-0.03903-2e-3 -0.57726-0.0559-1.1961-0.12024z" fill="#fff"/>
  </g>
 </g>
</svg>
