<?xml version="1.0" encoding="UTF-8"?>
<!-- Created with Inkscape (http://www.inkscape.org/) -->
<svg width="40mm" height="40mm" version="1.1" viewBox="0 0 40 40" xmlns="http://www.w3.org/2000/svg" >
 <g transform="translate(-107.54 -12.755)">
  <path d="m124.4 30.849s4.3724-0.60819 6.5291-1.9061c2.518-1.5155 3.9896-5.4704 3.9896-5.4704" display="none" fill="none" stroke="#000" stroke-width=".26458px"/>
  <path d="m131.01 80.02s-3.99-1.889-5.6593-3.7729c-1.949-2.1997-2.1694-6.4137-2.1694-6.4137" display="none" fill="none" stroke="#000" stroke-width=".26458px"/>
  <rect transform="scale(-1,1)" x="-147.54" y="12.755" width="40" height="40" fill="#9990"/>
  <g stroke="#000">
   <path d="m124.4 30.848s4.3725-0.60814 6.5291-1.9061c2.518-1.5155 3.9896-5.4705 3.9896-5.4705" fill="none" stroke-width=".54239px"/>
   <ellipse transform="scale(1,-1)" cx="138.88" cy="-35.369" rx="3.8085" ry="4.6421" stroke-width=".57462"/>
   <path d="m133.43 26.341c0.0932-0.01408 0.18653-0.02677 0.28012-0.03806 2.0704-0.24969 4.2366 0.18733 6.1343 1.3924 4.3649 2.7718 5.6565 8.5572 2.8847 12.922-2.7718 4.3649-8.5572 5.6565-12.922 2.8847-4.3649-2.7718-5.6565-8.5572-2.8847-12.922 0.0564-0.08881 0.11403-0.17635 0.17284-0.26264" fill="none" stroke-width=".74711"/>
  </g>
  <path d="m134.22 44.56c-2.7856-0.18722-5.3847-1.7092-6.9062-4.0441-1.2109-1.8583-1.698-4.1058-1.3625-6.2871 0.19338-1.2574 0.65989-2.4687 1.3664-3.5479l0.0928-0.14179 0.22485-0.0578c1.7185-0.44174 3.0162-0.96959 3.8419-1.5627 0.61195-0.43956 1.3178-1.1766 1.8765-1.9596 0.0898-0.12586 0.17978-0.23507 0.19989-0.24267 0.0201-0.0076 0.15233-0.02692 0.2938-0.04292 0.79582-0.09003 1.6605-0.06553 2.4687 0.06995 2.4245 0.40638 4.6029 1.8147 5.9714 3.8605 0.70699 1.0569 1.1813 2.2557 1.3955 3.5273 0.0926 0.54993 0.10666 0.74296 0.10692 1.4724 2.6e-4 0.73125-0.0133 0.91865-0.10713 1.4813-0.37382 2.2415-1.6202 4.2993-3.4323 5.6668-0.33791 0.255-0.46505 0.34116-0.80622 0.54638-1.0541 0.6341-2.28 1.0558-3.5214 1.2113-0.5414 0.06781-1.1699 0.08652-1.703 0.05069zm5.0293-4.2738c0.65551-0.07483 1.267-0.32458 1.8331-0.74866 0.23423-0.17547 0.63714-0.58207 0.82189-0.82941 0.58224-0.77946 0.91776-1.6462 1.0472-2.7053 0.0331-0.27102 0.0274-1.067-0.01-1.3482-0.1623-1.2304-0.64957-2.2852-1.4116-3.0559-0.938-0.94865-2.1349-1.3397-3.3498-1.0945-1.011 0.20405-1.9395 0.88154-2.5693 1.8746-0.43342 0.68343-0.70241 1.4798-0.80762 2.3911-0.0325 0.28137-0.0276 0.97052 9e-3 1.2684 0.13193 1.0743 0.50389 1.9958 1.1154 2.7633 0.66483 0.83451 1.5998 1.3747 2.5676 1.4835 0.19242 0.02164 0.56902 0.02215 0.75395 0.0011z" fill="#fff"/>
 </g>
</svg>
