<!-- Created with Inkscape (http://www.inkscape.org/) -->
<svg width="40mm" height="40mm" version="1.1" viewBox="0 0 40 40" xmlns="http://www.w3.org/2000/svg">
 <g transform="translate(-17.385 -150.57)">
  <path d="m124.4 30.849s4.3724-0.60819 6.5291-1.9061c2.518-1.5155 3.9896-5.4704 3.9896-5.4704" display="none" fill="none" stroke="#000" stroke-width=".26458px"/>
  <path d="m131.01 80.02s-3.99-1.889-5.6593-3.7729c-1.949-2.1997-2.1694-6.4137-2.1694-6.4137" display="none" fill="none" stroke="#000" stroke-width=".26458px"/>
  <g transform="translate(4.4336e-7 1.2891e-5)">
   <rect transform="scale(-1,1)" x="-57.385" y="150.57" width="40" height="40" fill="#9990"/>
   <g transform="rotate(15 52.035 186.37)" stroke="#000">
    <circle transform="scale(-1)" cx="-38.719" cy="-172.22" r="3.9251" stroke-width=".53641"/>
    <ellipse transform="rotate(37.884)" cx="133.9" cy="112.3" rx="1.0627" ry="1.3815" fill="#fff" stroke-width=".087706"/>
   </g>
   <g fill="none" stroke="#000">
    <path d="m32.719 175.07c2.8912 0.52032 6.0969 1.254 7.944 1.8326 1.5409 0.48266 3.3856 1.1537 5.6675 2.4008" stroke-linecap="round" stroke-width=".747"/>
    <path d="m51.579 166.49c0.62171 1.7328 0.81289 3.2725 0.30037 5.1854-0.94916 3.5423-3.807 6.0634-7.1704 6.7536m-8.7646-2.8319c-2.0975-2.2814-3.0183-5.5542-2.1568-8.7693 0.60765-2.2678 1.9181-4.1222 3.7222-5.3404" stroke-width=".5"/>
    <path d="m34.124 160.23c5.5554 2.3058 10.751 4.931 16.875 6.3496 1.3212 0.1676 2.2522-1.1405 2.5899-2.1826" stroke-linecap="round" stroke-width=".747"/>
   </g>
   <path d="m45.298 178c1.5794-0.46841 2.8363-1.2086 3.9605-2.3323 1.6532-1.6525 2.6279-3.9209 2.6279-6.1162 0-0.73869-0.0711-1.2577-0.28177-2.0569l-0.13628-0.51698h-0.26011c-0.28702 0-1.3167-0.24559-2.6912-0.64185-2.5577-0.73741-5.147-1.7079-9.2195-3.4554l-2.0406-0.87566-0.20262 0.16559c-1.3875 1.1339-2.4495 2.7795-2.9562 4.5804-0.43353 1.541-0.46361 3.1883-0.08554 4.6852 0.32723 1.2957 0.99428 2.6261 1.7905 3.5712 0.22506 0.26712 0.28839 0.31525 0.47742 0.36283 0.11987 0.0302 0.73271 0.17596 1.3619 0.32399 2.7428 0.64532 4.5288 1.2198 6.4987 2.0902 0.40429 0.17864 0.75077 0.32375 0.76996 0.32246 0.01918-1e-3 0.19328-0.0493 0.38687-0.10673zm-3.6425-4.703c-0.76408-0.22979-1.3469-0.59094-1.8965-1.1751-0.74707-0.79414-1.1267-1.7662-1.1267-2.8851 0-1.6099 0.86676-3.0113 2.3099-3.7347 0.71563-0.35873 1.0337-0.43123 1.8919-0.43123 0.85606 0 1.1722 0.072 1.8919 0.43066 1.0649 0.53078 1.804 1.4188 2.1622 2.598 0.10945 0.36031 0.12053 0.46136 0.12299 1.1219 0.0024 0.6267-0.01114 0.77669-0.09867 1.097-0.19776 0.72375-0.51808 1.2938-1.0294 1.8322-0.56096 0.59054-1.2109 0.97273-2.015 1.185-0.3809 0.10054-0.48042 0.10887-1.1219 0.094-0.60421-0.014-0.75875-0.0328-1.0906-0.13265z" fill="#fff"/>
  </g>
 </g>
</svg>
