<?xml version="1.0" encoding="UTF-8"?>
<!-- Created with Inkscape (http://www.inkscape.org/) -->
<svg width="40mm" height="40mm" version="1.1" viewBox="0 0 40 40" xmlns="http://www.w3.org/2000/svg" >
 <g transform="translate(-17.721 -150.57)">
  <path d="m124.4 30.849s4.3724-0.60819 6.5291-1.9061c2.518-1.5155 3.9896-5.4704 3.9896-5.4704" display="none" fill="none" stroke="#000" stroke-width=".26458px"/>
  <path d="m131.01 80.02s-3.99-1.889-5.6593-3.7729c-1.949-2.1997-2.1694-6.4137-2.1694-6.4137" display="none" fill="none" stroke="#000" stroke-width=".26458px"/>
  <g transform="matrix(-1 0 0 1 120.19 -.52917)">
   <rect x="62.465" y="151.1" width="40" height="40" fill="#9990"/>
   <g transform="matrix(-.96593 .25882 .25882 .96593 69.842 -6.5882)" stroke="#000">
    <circle transform="scale(-1)" cx="-38.719" cy="-172.22" r="3.9251" stroke-width=".53641"/>
    <ellipse transform="rotate(37.884)" cx="133.9" cy="112.3" rx="1.0627" ry="1.3815" fill="#fff" stroke-width=".087706"/>
   </g>
   <g fill="none" stroke="#000">
    <path d="m87.131 175.6c-2.8912 0.52032-6.0969 1.254-7.944 1.8326-1.5409 0.48266-3.3856 1.1537-5.6675 2.4008" stroke-linecap="round" stroke-width=".747"/>
    <path d="m68.271 167.02c-0.62171 1.7328-0.81289 3.2725-0.30037 5.1854 0.94916 3.5423 3.807 6.0634 7.1704 6.7536m8.7646-2.8319c2.0975-2.2814 3.0183-5.5542 2.1568-8.7693-0.60765-2.2678-1.9181-4.1222-3.7222-5.3404" stroke-width=".5"/>
    <path d="m85.726 160.76c-5.5554 2.3058-10.751 4.931-16.875 6.3496-1.3212 0.1676-1.7653-0.73472-2.103-1.7768" stroke-linecap="round" stroke-width=".747"/>
   </g>
   <path transform="matrix(.26458 0 0 .26458 275.97 113.15)" d="m-761.28 247.11c-5.9696-1.7704-10.72-4.5678-14.969-8.8148-6.2485-6.2457-9.9322-14.819-9.9322-23.116 0-2.7919 0.26873-4.7535 1.065-7.774l0.51508-1.9539h0.9831c1.0848 0 4.9766-0.92821 10.171-2.4259 9.667-2.787 19.453-6.4549 34.845-13.06l7.7126-3.3096 0.76582 0.62585c5.244 4.2855 9.258 10.505 11.173 17.312 1.6385 5.8241 1.7522 12.05 0.32331 17.708-1.2368 4.8971-3.7579 9.9254-6.7673 13.497-0.85062 1.0096-1.09 1.1915-1.8044 1.3713-0.45304 0.11401-2.7693 0.66506-5.1472 1.2245-10.366 2.439-17.117 4.6102-24.562 7.9-1.528 0.67517-2.8376 1.2236-2.9101 1.2187-0.0725-5e-3 -0.73051-0.1864-1.4622-0.40339zm13.767-17.775c2.8879-0.8685 5.0908-2.2335 7.1678-4.4414 2.8236-3.0015 4.2583-6.6754 4.2583-10.904 0-6.0846-3.2759-11.381-8.7302-14.115-2.7047-1.3558-3.907-1.6298-7.1505-1.6298-3.2355 0-4.4306 0.27204-7.1505 1.6277-4.025 2.0061-6.8181 5.3623-8.172 9.8193-0.41366 1.3618-0.45553 1.7437-0.46486 4.2404-9e-3 2.3686 0.0421 2.9355 0.37293 4.1461 0.74746 2.7355 1.9581 4.8901 3.8907 6.9247 2.1202 2.232 4.5765 3.6765 7.6158 4.4788 1.4396 0.38 1.8158 0.4115 4.2404 0.35513 2.2836-0.0531 2.8677-0.12412 4.122-0.50135z" fill="#fff"/>
  </g>
 </g>
</svg>
