<svg width="40mm" height="40mm" version="1.1" viewBox="0 0 40 40" xmlns="http://www.w3.org/2000/svg">
  <g transform="translate(-107.54 -12.755)">
    <path d="m124.4 30.849s4.3724-0.60819 6.5291-1.9061c2.518-1.5155 3.9896-5.4704 3.9896-5.4704" display="none" fill="none" stroke="#000" stroke-width=".26458px"/>
    <path d="m131.01 80.02s-3.99-1.889-5.6593-3.7729c-1.949-2.1997-2.1694-6.4137-2.1694-6.4137" display="none" fill="none" stroke="#000" stroke-width=".26458px"/>
    <rect transform="scale(-1,1)" x="-147.54" y="12.755" width="40" height="40" fill="#9990"/>
    <g stroke="#000">
      <path d="m124.4 30.848s4.3725-0.60814 6.5291-1.9061c2.518-1.5155 3.9896-5.4705 3.9896-5.4705" fill="none" stroke-width=".7"/>
      <path d="m133.43 26.341c0.0932-0.01408 0.18653-0.02677 0.28012-0.03806 2.0704-0.24969 4.2366 0.18733 6.1343 1.3924 4.3649 2.7718 5.6565 8.5572 2.8847 12.922-2.7718 4.3649-8.5572 5.6565-12.922 2.8847-4.3649-2.7718-5.6565-8.5572-2.8847-12.922 0.0564-0.08881 0.11403-0.17635 0.17284-0.26264" fill="none" stroke-width=".5"/>
      <ellipse transform="scale(1,-1)" cx="139.48" cy="-34.986" rx="3.7019" ry="4.1766" stroke-width=".56096"/>
      <path d="m138.92 31.818c0.62219 0.33744 0.78815 1.0722 0.23905 1.6893-0.36164 0.40642-0.48784 0.63212-0.63067 1.223-0.12308 0.50921-0.6559 1.3171-1.4085 0.90888-0.75257-0.40816-0.95967-1.5944-0.46258-2.6496 0.49709-1.0552 1.5102-1.5797 2.2627-1.1715z" fill="#fff" stroke-width=".1"/>
    </g>
    <path d="m134.55 44.701c-2.2018-0.06113-4.3657-0.96108-5.9688-2.4824-1.1124-1.0557-1.8993-2.2824-2.3803-3.7106-0.69962-2.0777-0.63509-4.2742 0.18582-6.325 0.18001-0.44972 0.56012-1.178 0.79955-1.5319l0.0473-0.07 0.36446-0.09272c1.4663-0.37305 2.7203-0.84507 3.4891-1.3134 0.81316-0.49533 1.5753-1.2492 2.3213-2.2961 0.0916-0.12848 0.17716-0.24964 0.19024-0.26926 0.0208-0.03119 0.0476-0.03844 0.21402-0.05775 0.81573-0.09467 1.7063-0.0696 2.5366 0.07142 2.4612 0.41804 4.6616 1.8448 6.0451 3.9197 1.4858 2.2283 1.9206 5.0057 1.1835 7.5598-0.88174 3.0555-3.267 5.4206-6.3199 6.2666-0.48479 0.13434-1.0219 0.23648-1.5067 0.28655-0.22373 0.0231-0.90407 0.05854-1.0032 0.05224-0.0262-0.0016-0.11533-0.0049-0.19816-0.0072zm5.2973-5.2691c0.52286-0.05273 1.0773-0.241 1.5498-0.52629 0.47373-0.286 0.96581-0.76647 1.2902-1.2598 0.66235-1.0072 0.92027-2.2603 0.71556-3.4766-0.21659-1.2868-0.88791-2.3587-1.9012-3.0357-0.35735-0.23875-0.87713-0.45465-1.2955-0.53812-0.65335-0.13035-1.3538-0.07902-1.9624 0.14378-0.36208 0.13258-0.80708 0.38716-1.1193 0.64038-0.42006 0.34064-0.82264 0.84456-1.0937 1.3689-0.36123 0.69894-0.53264 1.4189-0.53264 2.2371s0.17141 1.5382 0.53264 2.2371c0.57767 1.1177 1.5526 1.8961 2.6886 2.1467 0.3295 0.07268 0.77923 0.09755 1.1279 0.06239z" fill="#fff"/>
  </g>
</svg>
