<!-- Created with Inkscape (http://www.inkscape.org/) -->
<svg width="40mm" height="40mm" version="1.1" viewBox="0 0 40 40" xmlns="http://www.w3.org/2000/svg">
 <g transform="translate(-152.62 -12.755)">
  <path d="m124.4 30.849s4.3724-0.60819 6.5291-1.9061c2.518-1.5155 3.9896-5.4704 3.9896-5.4704" display="none" fill="none" stroke="#000" stroke-width=".26458px"/>
  <path d="m131.01 80.02s-3.99-1.889-5.6593-3.7729c-1.949-2.1997-2.1694-6.4137-2.1694-6.4137" display="none" fill="none" stroke="#000" stroke-width=".26458px"/>
  <rect x="152.62" y="12.755" width="40" height="40" fill="#9990"/>
  <path d="m175.75 30.848s-4.3725-0.60814-6.5291-1.9061c-2.518-1.5155-3.9896-5.4705-3.9896-5.4705" fill="none" stroke="#000" stroke-width=".54239px"/>
  <path d="m166.72 26.341c-0.0932-0.01408-0.18653-0.02677-0.28012-0.03806-2.0704-0.24969-4.2366 0.18733-6.1343 1.3924-4.3649 2.7718-5.6565 8.5572-2.8847 12.922 2.7718 4.3649 8.5572 5.6565 12.922 2.8847 4.3649-2.7718 5.6565-8.5572 2.8847-12.922-0.0564-0.08881-0.11403-0.17635-0.17284-0.26264" fill="none" stroke="#000" stroke-width=".5"/>
  <path d="m164.54 44.667c-2.7813-0.25922-5.2808-1.7492-6.7974-4.0519-0.30087-0.45682-0.52266-0.85427-0.71161-1.2753-0.47894-1.067-0.74746-2.1953-0.79105-3.3238-0.0635-1.6433 0.25088-3.1028 0.97736-4.5375 1.2525-2.4735 3.5762-4.2402 6.3174-4.803 0.71069-0.1459 1.6268-0.20833 2.3314-0.15886 0.70205 0.0493 0.63589 0.02601 0.81537 0.28694 0.22755 0.33082 0.55225 0.74101 0.85694 1.0826 0.90909 1.0191 1.8344 1.5938 3.4562 2.1465 0.44027 0.15005 1.3403 0.41287 1.7041 0.4976l0.20715 0.04825 0.15242 0.23565c0.35919 0.55532 0.78113 1.4933 0.98428 2.188 0.25858 0.8843 0.34295 1.4421 0.36108 2.387 0.0142 0.74217-5e-3 1.0557-0.099 1.6504-0.3497 2.2023-1.5264 4.2328-3.2624 5.6296-1.3352 1.0743-2.8909 1.7382-4.5959 1.9613-0.38045 0.04979-1.5278 0.07174-1.9063 0.03647zm-3.3164-5.7296c0.57028-0.03677 1.2449-0.29829 1.7528-0.67943 0.28943-0.21723 0.70031-0.6473 0.90582-0.94814 0.19778-0.28952 0.44342-0.78958 0.55229-1.1243 0.42921-1.3197 0.23258-2.8317-0.51508-3.9604-1.3138-1.9835-3.8789-2.2864-5.5279-0.65283-0.66831 0.66208-1.085 1.5083-1.2305 2.4989-0.0603 0.41081-0.0398 1.2271 0.0403 1.6008 0.19764 0.92235 0.61556 1.6859 1.2568 2.2961 0.60675 0.5774 1.3676 0.92233 2.1606 0.97942 0.13884 0.01 0.28181 0.01503 0.31772 0.01119 0.0359-0.0038 0.16516-0.01342 0.28725-0.02127z" fill="#fff"/>
  <ellipse transform="scale(-1)" cx="-160.67" cy="-34.986" rx="3.7019" ry="4.1766" stroke="#000" stroke-width=".56096"/>
  <ellipse transform="matrix(.46724 -.88413 .85623 .51659 0 0)" cx="53.754" cy="156.27" rx="1.4556" ry="1.0684" fill="#fff" stroke="#000" stroke-width=".17612"/>
 </g>
</svg>
