<svg width="40mm" height="40mm" version="1.1" viewBox="0 0 40 40" xmlns="http://www.w3.org/2000/svg">
  <g transform="translate(-17.385 -195.63)">
    <path d="m124.4 30.849s4.3724-0.60819 6.5291-1.9061c2.518-1.5155 3.9896-5.4704 3.9896-5.4704" display="none" fill="none" stroke="#000" stroke-width=".26458px"/>
    <path d="m131.01 80.02s-3.99-1.889-5.6593-3.7729c-1.949-2.1997-2.1694-6.4137-2.1694-6.4137" display="none" fill="none" stroke="#000" stroke-width=".26458px"/>
    <g transform="matrix(-1 0 0 1 74.769 0)">
      <rect x="17.385" y="195.63" width="40" height="40" fill="#9990"/>
      <path d="m30.78 204.09c0.66204 0.32114 1.2314-0.11839 1.979-0.48136 0.72215-1.2738 1.145-1.3276 1.0385-1.8878" fill="none" stroke="#000" stroke-linecap="round" stroke-width=".53655"/>
      <path d="m55.524 215.61 0.13032 5.4389h-7.4124l0.38832-6.524" fill="none" stroke="#000" stroke-linecap="round" stroke-width=".5"/>
      <path d="m48.356 220.81c0.0049-0.0733 0.08636-1.4446 0.18108-3.0474 0.09472-1.6028 0.17755-2.9195 0.18408-2.926 0.0065-7e-3 0.23558 0.0376 0.50901 0.0981 1.7259 0.38187 3.453 0.61237 5.9117 0.78898l0.27195 0.0195 0.01699 0.22473c0.01561 0.20665 0.11588 4.4344 0.11409 4.8108l-7.94e-4 0.16462h-7.197z" fill="#fff"/>
      <path d="m57.379 215.63c-12.771-0.17028-18.554-4.059-24.604-11.969" fill="none" stroke="#000" stroke-width=".9"/>
    </g>
  </g>
</svg>
