<svg width="40mm" height="40mm" version="1.1" viewBox="0 0 40 40" xmlns="http://www.w3.org/2000/svg">
  <g transform="translate(-17.385 -241.74)">
    <path d="m124.4 30.849s4.3724-0.60819 6.5291-1.9061c2.518-1.5155 3.9896-5.4704 3.9896-5.4704" display="none" fill="none" stroke="#000" stroke-width=".26458px"/>
    <path d="m131.01 80.02s-3.99-1.889-5.6593-3.7729c-1.949-2.1997-2.1694-6.4137-2.1694-6.4137" display="none" fill="none" stroke="#000" stroke-width=".26458px"/>
    <g transform="matrix(-.99976 0 0 1 75.086 0)">
      <rect transform="scale(-1)" x="-57.705" y="-281.74" width="40" height="40" fill="#9990"/>
      <g stroke="#000">
        <path d="m53.028 263.92c0.57545-1.1205 0.42607-3.7952 2.1587-4.1503 0.8931-0.18301 1.7275 1.3715 2.5263 1.3458" fill="none" stroke-width=".1"/>
        <path d="m57.706 267.03c-2.8157 0-4.4485 0.32687-6.288 0.95941-4.3407 1.4925-7.5495 5.9909-12.103 6.5682-3.0187 0.38274-6.4408-0.36318-8.856-2.2139-1.9667-1.5071-3.4301-4.0237-3.6162-6.4944-0.19533-2.5925 1.242-5.1746 2.7306-7.3062 2.3572-3.3755 5.6285-6.3318 9.3726-8.0442 5.5872-2.5556 11.781-2.7306 18.76-2.7306" stroke-width=".53115px"/>
        <path d="m50.829 247.82-0.3682 4.9685h5.4766l-1.43e-4 -5.0354" fill="#fff" stroke-linecap="round" stroke-width=".11616"/>
        <path d="m57.174 267.03c-2.4845 0.0492-3.9169 0.32686-5.7564 0.95937-4.3407 1.4925-7.5495 5.9909-12.103 6.5682-3.0187 0.38274-6.4408-0.36318-8.856-2.2139-1.9667-1.5071-3.4301-4.0237-3.6162-6.4944-0.19533-2.5925 1.242-5.1746 2.7306-7.3062 2.3572-3.3755 5.6285-6.3318 9.3726-8.0442 5.5872-2.5556 11.25-2.7306 18.229-2.7306" fill="none" stroke-linecap="round" stroke-width=".4"/>
      </g>
      <path d="m53.208 263.75c0.0647-0.16778 0.25914-0.74405 0.43144-1.2787 0.2836-0.88007 0.63338-1.3413 1.1759-1.5505 0.50463-0.1946 0.8175-0.14022 1.4507 0.25212 0.66563 0.41244 0.97831 0.57693 1.1861 0.624l0.20508 0.0464v1.6437l-0.19687 0.0246c-0.10828 0.0136-0.4213 0.025-0.69561 0.0254-0.77581 2e-3 -3.1201 0.17865-3.4857 0.26368-0.0784 0.0182-0.0935 7e-3 -0.071-0.0508z" fill="#a00"/>
      <path d="m57.706 263.5c-6.4652 0-12.452 2.5211-17.323 5.0353-2.9357 1.5153-5.5979 3.1342-7.7859 4.9414" fill="none" stroke="#000" stroke-width=".1"/>
      <path d="m36.921 274.34c-0.5644-0.0419-1.5042-0.18534-2.0474-0.31245-0.62043-0.14515-1.7768-0.51721-1.9099-0.6145-0.0764-0.0559-0.0227-0.11424 0.42561-0.46288 3.253-2.5298 9.0768-5.6356 13.785-7.3517 3.3871-1.2345 6.3811-1.8517 9.7877-2.0179l0.69561-0.0339v3.2141h-0.46199c-1.4546 0-3.6516 0.29948-5.0239 0.68485-1.9747 0.55446-3.1924 1.2325-6.4033 3.5652-3.0116 2.1879-4.5287 2.9588-6.3574 3.2303-0.56041 0.0832-1.9551 0.13854-2.4904 0.0988z" fill="#fff"/>
    </g>
  </g>
</svg>
