<!-- Created with Inkscape (http://www.inkscape.org/) -->
<svg width="40mm" height="40mm" version="1.1" viewBox="0 0 40 40" xmlns="http://www.w3.org/2000/svg">
 <g transform="translate(-152.62 -195.63)">
  <path d="m124.4 30.849s4.3724-0.60819 6.5291-1.9061c2.518-1.5155 3.9896-5.4704 3.9896-5.4704" display="none" fill="none" stroke="#000" stroke-width=".26458px"/>
  <path d="m131.01 80.02s-3.99-1.889-5.6593-3.7729c-1.949-2.1997-2.1694-6.4137-2.1694-6.4137" display="none" fill="none" stroke="#000" stroke-width=".26458px"/>
  <g transform="matrix(-1.0002 0 0 1 299.89 0)">
   <rect transform="scale(-1,1)" x="-147.25" y="195.63" width="39.993" height="40" fill="#9990"/>
   <g stroke="#000">
    <path d="m147.25 207.58h-22.585s-0.0236 0.22033-0.028 0.39747c-1.0584 8.7604 9.7944 15.305 22.613 15.277" stroke-width=".74427"/>
    <path d="m144.52 223.04 0.0136-5.2768-3.7004 0.14235 0.52858 4.9029" fill="none" stroke-linecap="round" stroke-width=".1"/>
    <path d="m144.93 222.75c-1.1211-0.0653-2.436-0.17856-3.5416-0.30497l-0.31347-0.0358-0.0111-0.0563c-0.0289-0.15049-0.65311-4.3833-0.64705-4.3877 8e-3 -6e-3 4.9302-0.14428 4.9374-0.13881 2e-3 2e-3 -7.3e-4 1.116-7e-3 2.4755l-0.0124 2.4718z" fill="#fff" stroke-width=".006051"/>
   </g>
  </g>
 </g>
</svg>
