<!-- Created with Inkscape (http://www.inkscape.org/) -->
<svg width="40mm" height="40mm" version="1.1" viewBox="0 0 40 40" xmlns="http://www.w3.org/2000/svg">
 <g transform="translate(-107.54 -106.02)">
  <path d="m124.4 30.849s4.3724-0.60819 6.5291-1.9061c2.518-1.5155 3.9896-5.4704 3.9896-5.4704" display="none" fill="none" stroke="#000" stroke-width=".26458px"/>
  <path d="m131.01 80.02s-3.99-1.889-5.6593-3.7729c-1.949-2.1997-2.1694-6.4137-2.1694-6.4137" display="none" fill="none" stroke="#000" stroke-width=".26458px"/>
  <g transform="translate(.28502)">
   <rect x="107.25" y="106.02" width="40" height="40" fill="#9990"/>
   <path d="m119.33 121.14c-0.195-0.10888-0.44123-0.0389-0.55008 0.15625-0.10844 0.19576-0.0376 0.44247 0.158 0.55078 8.6798 4.8349 17.109 4.4277 28.261 4.5766v-0.81c-11.189-0.14938-19.411 0.23783-27.869-4.4736z" color="#000000" stroke="#000" stroke-width=".099937"/>
  </g>
 </g>
</svg>
