<svg width="40mm" height="40mm" version="1.1" viewBox="0 0 40 40" xmlns="http://www.w3.org/2000/svg">
  <g transform="translate(-107.54 -150.57)">
    <path d="m124.4 30.849s4.3724-0.60819 6.5291-1.9061c2.518-1.5155 3.9896-5.4704 3.9896-5.4704" display="none" fill="none" stroke="#000" stroke-width=".26458px"/>
    <path d="m131.01 80.02s-3.99-1.889-5.6593-3.7729c-1.949-2.1997-2.1694-6.4137-2.1694-6.4137" display="none" fill="none" stroke="#000" stroke-width=".26458px"/>
    <g transform="translate(.28502)">
      <rect transform="scale(-1,1)" x="-147.25" y="150.57" width="40" height="40" fill="#9990"/>
      <g fill="none" stroke="#000">
        <path d="m134.94 165.13c0.35357-0.82721 0.38682-1.3596 0.26669-2.7258 0 0 0.0362-1.358-0.61942-2.0903" stroke-linecap="round" stroke-width=".54316"/>
        <path d="m107.25 170.57c9.2015 0 15.018-0.79715 20.333-5.2408 2.5878-2.1639 4.6971-2.9367 7.4111-2.9326" stroke-width=".9"/>
        <path d="m116.49 169.95c0.12724-2.7495-0.9738-4.342-1.1775-6.7451l-1.3e-4 -7e-5c-0.0514-1.0662 0.62587-3.1857 2.0149-3.5402 1.1238-0.2172 3.031 0.4359 4.0646 2.7264 0.85881 2.3506 1.3478 4.1066 1.1997 5.8798" stroke-linecap="round" stroke-width=".40993"/>
        <path d="m119.71 169.09c-0.0811-0.89557-0.13097-1.4763-0.26366-2.391-0.13275-0.91475-0.58641-2.4905-0.92135-3.4398" stroke-linecap="round" stroke-width=".3382"/>
      </g>
      <path d="m116.72 169.55c-1e-3 -0.18484-0.0316-0.75683-0.0509-0.95148-0.0756-0.76373-0.2122-1.4076-0.57042-2.688-0.35274-1.2608-0.48375-1.8646-0.55703-2.5677-0.0623-0.59795 0.10517-1.3946 0.43838-2.0849 0.29705-0.61543 0.66489-1.0431 1.0846-1.261 0.23015-0.11951 0.37774-0.15149 0.70037-0.15176 1.1024-7.9e-4 2.237 0.69573 2.9962 1.8396 0.32776 0.49382 0.45165 0.78162 0.84601 1.9654 0.42813 1.2851 0.64964 2.2024 0.75273 3.117 0.0345 0.30606 0.0577 0.91584 0.0425 1.1166l-0.0131 0.17346-0.24871 0.10159c-0.32806 0.134-0.79543 0.30859-1.1484 0.42902-0.33738 0.11509-1.0994 0.34686-1.109 0.33729-4e-3 -4e-3 -0.0126-0.0711-0.0199-0.14988-0.18036-1.9531-0.29581-2.6449-0.65726-3.9384-0.19766-0.70735-0.49161-1.6266-0.53968-1.6877-0.0662-0.0841-0.19169-0.0881-0.26616-8e-3 -0.062 0.0664-0.0554 0.12621 0.0476 0.4299 0.27504 0.81133 0.57358 1.8812 0.72239 2.5887 0.0728 0.34637 0.11879 0.63171 0.18326 1.1381 0.0626 0.49146 0.18563 1.7175 0.17356 1.7293-0.0229 0.0224-1.1207 0.27386-1.629 0.37319-0.2668 0.0522-1.1359 0.20486-1.1667 0.20501-6e-3 3e-5 -0.0111-0.0246-0.0113-0.0548z" fill="#e9afaf" stroke-width=".055296"/>
    </g>
  </g>
</svg>
