<!-- Created with Inkscape (http://www.inkscape.org/) -->
<svg width="40mm" height="40mm" version="1.1" viewBox="0 0 40 40" xmlns="http://www.w3.org/2000/svg">
 <g transform="translate(-152.62 -150.57)">
  <rect transform="scale(-1,1)" x="-192.62" y="150.57" width="40" height="40" fill="#9990"/>
  <path d="m152.62 170.57c2.7516 0 3.1251-0.35021 4.0399-0.0982" fill="none" stroke="#000" stroke-width=".9"/>
  <path d="m183.87 176.22c0 6.4592-5.2851 11.695-11.805 11.695-4.8969 0-7.3483-3.2822-9.5679-7.85-0.73554-1.5137-1.8409-3.0366-2.4763-4.8034-1.1964-2.3768-2.0496-2.8589-3.759-4.9557 5.2436-0.8426 7.2822-5.101 14.894-5.4744 3.4228-6e-3 6.4517 0.53174 8.1154 2.1753 3.1889 3.2299 4.5981 5.1762 4.5981 9.2129z" fill="#e9afaf" stroke="#000" stroke-linecap="round" stroke-width=".60714"/>
  <g fill="none" stroke="#000">
   <path d="m165.6 170.68c1.788-9e-3 3.2788 0.23822 4.6803 1.0012 1.407 0.76609 2.5293 2.0543 3.3961 3.4023 0.44003 0.68433 0.571 1.524 0.85649 2.2859" stroke-linecap="round" stroke-width=".60714"/>
   <g stroke-width=".40476">
    <path d="m184.13 168.28s1.984 2.2788 2.4486 3.676c0.51585 1.5516 0.52471 2.8008 0.52471 2.8008"/>
    <path d="m187.52 169.62s1.5775 2.5915 1.7564 4.0535c0.19588 1.6013 0.0186 2.8496 0.0186 2.8496"/>
    <path d="m164.89 188.62s-2.4761-1.7072-3.3158-2.9166c-1.0471-1.508-1.2311-2.5696-1.2311-2.5696"/>
    <path d="m161.26 188.21s-2.1531-2.1118-2.7447-3.4602c-0.66648-1.5189-0.75486-2.7477-0.75486-2.7477"/>
   </g>
  </g>
  <path d="m124.4 30.849s4.3724-0.60819 6.5291-1.9061c2.518-1.5155 3.9896-5.4704 3.9896-5.4704" display="none" fill="none" stroke="#000" stroke-width=".26458px"/>
  <path d="m131.01 80.02s-3.99-1.889-5.6593-3.7729c-1.949-2.1997-2.1694-6.4137-2.1694-6.4137" display="none" fill="none" stroke="#000" stroke-width=".26458px"/>
 </g>
</svg>
