<!-- Created with Inkscape (http://www.inkscape.org/) -->
<svg width="40mm" height="40mm" version="1.1" viewBox="0 0 40 40" xmlns="http://www.w3.org/2000/svg">
 <g transform="translate(-107.54 -241.74)">
  <path d="m124.4 30.849s4.3724-0.60819 6.5291-1.9061c2.518-1.5155 3.9896-5.4704 3.9896-5.4704" display="none" fill="none" stroke="#000" stroke-width=".26458px"/>
  <path d="m131.01 80.02s-3.99-1.889-5.6593-3.7729c-1.949-2.1997-2.1694-6.4137-2.1694-6.4137" display="none" fill="none" stroke="#000" stroke-width=".26458px"/>
  <g transform="translate(-96.487 343.66)">
   <rect transform="scale(-1,1)" x="-147.54" y="12.755" width="40" height="40" fill="#999"/>
   <g stroke="#000">
    <path d="m124.4 30.848s4.3725-0.60814 6.5291-1.9061c2.518-1.5155 3.9896-5.4705 3.9896-5.4705" fill="none" stroke-width=".54239px"/>
    <ellipse transform="scale(1,-1)" cx="138.88" cy="-35.369" rx="3.8085" ry="4.6421" stroke-width=".57462"/>
    <path d="m133.43 26.341c0.0932-0.01408 0.18653-0.02677 0.28012-0.03806 2.0704-0.24969 4.2366 0.18733 6.1343 1.3924 4.3649 2.7718 5.6565 8.5572 2.8847 12.922-2.7718 4.3649-8.5572 5.6565-12.922 2.8847-4.3649-2.7718-5.6565-8.5572-2.8847-12.922 0.0564-0.08881 0.11403-0.17635 0.17284-0.26264" fill="none" stroke-width=".74711"/>
   </g>
   <path d="m134.22 44.56c-2.7856-0.18722-5.3847-1.7092-6.9062-4.0441-1.2109-1.8583-1.698-4.1058-1.3625-6.2871 0.19338-1.2574 0.65989-2.4687 1.3664-3.5479l0.0928-0.14179 0.22485-0.0578c1.7185-0.44174 3.0162-0.96959 3.8419-1.5627 0.61195-0.43956 1.3178-1.1766 1.8765-1.9596 0.0898-0.12586 0.17978-0.23507 0.19989-0.24267 0.0201-0.0076 0.15233-0.02692 0.2938-0.04292 0.79582-0.09003 1.6605-0.06553 2.4687 0.06995 2.4245 0.40638 4.6029 1.8147 5.9714 3.8605 0.70699 1.0569 1.1813 2.2557 1.3955 3.5273 0.0926 0.54993 0.10666 0.74296 0.10692 1.4724 2.6e-4 0.73125-0.0133 0.91865-0.10713 1.4813-0.37382 2.2415-1.6202 4.2993-3.4323 5.6668-0.33791 0.255-0.46505 0.34116-0.80622 0.54638-1.0541 0.6341-2.28 1.0558-3.5214 1.2113-0.5414 0.06781-1.1699 0.08652-1.703 0.05069zm5.0293-4.2738c0.65551-0.07483 1.267-0.32458 1.8331-0.74866 0.23423-0.17547 0.63714-0.58207 0.82189-0.82941 0.58224-0.77946 0.91776-1.6462 1.0472-2.7053 0.0331-0.27102 0.0274-1.067-0.01-1.3482-0.1623-1.2304-0.64957-2.2852-1.4116-3.0559-0.938-0.94865-2.1349-1.3397-3.3498-1.0945-1.011 0.20405-1.9395 0.88154-2.5693 1.8746-0.43342 0.68343-0.70241 1.4798-0.80762 2.3911-0.0325 0.28137-0.0276 0.97052 9e-3 1.2684 0.13193 1.0743 0.50389 1.9958 1.1154 2.7633 0.66483 0.83451 1.5998 1.3747 2.5676 1.4835 0.19242 0.02164 0.56902 0.02215 0.75395 0.0011z" fill="#fff"/>
  </g>
  <g transform="matrix(-1 0 0 1 198.59 343.66)">
   <rect transform="scale(-1,1)" x="-147.54" y="12.755" width="40" height="40" fill="#999"/>
   <g stroke="#000">
    <path d="m124.4 30.848s4.3725-0.60814 6.5291-1.9061c2.518-1.5155 3.9896-5.4705 3.9896-5.4705" fill="none" stroke-width=".54239px"/>
    <ellipse transform="scale(1,-1)" cx="138.88" cy="-35.369" rx="3.8085" ry="4.6421" stroke-width=".57462"/>
    <path transform="matrix(-1.7306 -1.0989 1.0989 -1.7306 81.725 -82.562)" d="m-49.769-31.325c-0.03468 0.03016-0.06981 0.0598-0.1054 0.08892-0.78726 0.6442-1.7936 1.0307-2.8902 1.0307-2.5222 0-4.5669-2.0447-4.5669-4.5669s2.0447-4.5669 4.5669-4.5669 4.5669 2.0447 4.5669 4.5669c0 0.05132-8.46e-4 0.10244-0.0025 0.15335" fill="none" stroke-width=".36444"/>
   </g>
   <path transform="scale(.26458)" d="m507.29 168.42c-10.528-0.70761-20.352-6.46-26.102-15.285-4.5767-7.0233-6.4176-15.518-5.1497-23.762 0.73087-4.7525 2.4941-9.3305 5.1645-13.409l0.35087-0.53591 0.84985-0.21846c6.495-1.6696 11.4-3.6646 14.52-5.9061 2.3129-1.6613 4.9806-4.4471 7.0923-7.4063 0.33949-0.47571 0.67945-0.88844 0.75548-0.91718 0.076-0.0287 0.57572-0.10174 1.1104-0.16223 3.0078-0.34027 6.2758-0.24767 9.3306 0.26436 9.1635 1.5359 17.397 6.8586 22.569 14.591 2.6721 3.9944 4.4648 8.5255 5.2744 13.331 0.35014 2.0785 0.40311 2.808 0.40408 5.565 1e-3 2.7638-0.0502 3.4721-0.40488 5.5985-1.4129 8.4718-6.1237 16.249-12.973 21.418-1.2771 0.96376-1.7577 1.2894-3.0471 2.0651-3.9841 2.3966-8.6173 3.9903-13.309 4.578-2.0462 0.2563-4.4217 0.327-6.4366 0.19157zm19.008-16.153c2.4775-0.28283 4.7887-1.2268 6.9282-2.8296 0.88527-0.66321 2.4081-2.2 3.1064-3.1348 2.2006-2.946 3.4687-6.222 3.958-10.225 0.12521-1.0243 0.1036-4.0328-0.0366-5.0957-0.61342-4.6502-2.455-8.637-5.3352-11.55-3.5452-3.5854-8.0689-5.0635-12.661-4.1367-3.821 0.7712-7.3305 3.3318-9.7108 7.0853-1.6381 2.583-2.6548 5.593-3.0524 9.0372-0.12278 1.0635-0.10436 3.6681 0.0339 4.794 0.49865 4.0602 1.9045 7.5432 4.2156 10.444 2.5127 3.154 6.0464 5.1958 9.7043 5.607 0.72726 0.0818 2.1506 0.0837 2.8496 4e-3z" fill="#fff"/>
  </g>
  <g transform="matrix(.99976 0 0 1 -6.6494 154.67)">
   <rect transform="scale(-1)" x="-57.705" y="-281.74" width="40" height="40" fill="#999"/>
   <g stroke="#000">
    <path d="m53.028 263.92c0.57545-1.1205 0.42607-3.7952 2.1587-4.1503 0.8931-0.18301 1.7275 1.3715 2.5263 1.3458" fill="none" stroke-width=".1"/>
    <path d="m57.706 267.03c-2.8157 0-4.4485 0.32687-6.288 0.95941-4.3407 1.4925-7.5495 5.9909-12.103 6.5682-3.0187 0.38274-6.4408-0.36318-8.856-2.2139-1.9667-1.5071-3.4301-4.0237-3.6162-6.4944-0.19533-2.5925 1.242-5.1746 2.7306-7.3062 2.3572-3.3755 5.6285-6.3318 9.3726-8.0442 5.5872-2.5556 11.781-2.7306 18.76-2.7306" stroke-width=".53115px"/>
    <path d="m50.829 247.82-0.3682 4.9685h5.4766l-1.43e-4 -5.0354" fill="#fff" stroke-linecap="round" stroke-width=".11616"/>
    <path d="m57.174 267.03c-2.4845 0.0492-3.9169 0.32686-5.7564 0.95937-4.3407 1.4925-7.5495 5.9909-12.103 6.5682-3.0187 0.38274-6.4408-0.36318-8.856-2.2139-1.9667-1.5071-3.4301-4.0237-3.6162-6.4944-0.19533-2.5925 1.242-5.1746 2.7306-7.3062 2.3572-3.3755 5.6285-6.3318 9.3726-8.0442 5.5872-2.5556 11.25-2.7306 18.229-2.7306" fill="none" stroke-linecap="round" stroke-width=".4"/>
   </g>
   <path d="m53.208 263.75c0.0647-0.16778 0.25914-0.74405 0.43144-1.2787 0.2836-0.88007 0.63338-1.3413 1.1759-1.5505 0.50463-0.1946 0.8175-0.14022 1.4507 0.25212 0.66563 0.41244 0.97831 0.57693 1.1861 0.624l0.20508 0.0464v1.6437l-0.19687 0.0246c-0.10828 0.0136-0.4213 0.025-0.69561 0.0254-0.77581 2e-3 -3.1201 0.17865-3.4857 0.26368-0.0784 0.0182-0.0935 7e-3 -0.071-0.0508z" fill="#a00"/>
   <path d="m57.706 263.5c-6.4652 0-12.452 2.5211-17.323 5.0353-2.9357 1.5153-5.5979 3.1342-7.7859 4.9414" fill="none" stroke="#000" stroke-width=".1"/>
   <path d="m36.921 274.34c-0.5644-0.0419-1.5042-0.18534-2.0474-0.31245-0.62043-0.14515-1.7768-0.51721-1.9099-0.6145-0.0764-0.0559-0.0227-0.11424 0.42561-0.46288 3.253-2.5298 9.0768-5.6356 13.785-7.3517 3.3871-1.2345 6.3811-1.8517 9.7877-2.0179l0.69561-0.0339v3.2141h-0.46199c-1.4546 0-3.6516 0.29948-5.0239 0.68485-1.9747 0.55446-3.1924 1.2325-6.4033 3.5652-3.0116 2.1879-4.5287 2.9588-6.3574 3.2303-0.56041 0.0832-1.9551 0.13854-2.4904 0.0988z" fill="#fff"/>
  </g>
  <g transform="matrix(-.99976 0 0 1 108.75 154.67)">
   <rect transform="scale(-1)" x="-57.705" y="-281.74" width="40" height="40" fill="#999"/>
   <g stroke="#000">
    <path d="m53.028 263.92c0.57545-1.1205 0.42607-3.7952 2.1587-4.1503 0.8931-0.18301 1.7275 1.3715 2.5263 1.3458" fill="none" stroke-width=".1"/>
    <path d="m57.706 267.03c-2.8157 0-4.4485 0.32687-6.288 0.95941-4.3407 1.4925-7.5495 5.9909-12.103 6.5682-3.0187 0.38274-6.4408-0.36318-8.856-2.2139-1.9667-1.5071-3.4301-4.0237-3.6162-6.4944-0.19533-2.5925 1.242-5.1746 2.7306-7.3062 2.3572-3.3755 5.6285-6.3318 9.3726-8.0442 5.5872-2.5556 11.781-2.7306 18.76-2.7306" stroke-width=".53115px"/>
    <path d="m50.829 247.82-0.3682 4.9685h5.4766l-1.43e-4 -5.0354" fill="#fff" stroke-linecap="round" stroke-width=".11616"/>
    <path d="m57.174 267.03c-2.4845 0.0492-3.9169 0.32686-5.7564 0.95937-4.3407 1.4925-7.5495 5.9909-12.103 6.5682-3.0187 0.38274-6.4408-0.36318-8.856-2.2139-1.9667-1.5071-3.4301-4.0237-3.6162-6.4944-0.19533-2.5925 1.242-5.1746 2.7306-7.3062 2.3572-3.3755 5.6285-6.3318 9.3726-8.0442 5.5872-2.5556 11.25-2.7306 18.229-2.7306" fill="none" stroke-linecap="round" stroke-width=".4"/>
   </g>
   <path d="m53.208 263.75c0.0647-0.16778 0.25914-0.74405 0.43144-1.2787 0.2836-0.88007 0.63338-1.3413 1.1759-1.5505 0.50463-0.1946 0.8175-0.14022 1.4507 0.25212 0.66563 0.41244 0.97831 0.57693 1.1861 0.624l0.20508 0.0464v1.6437l-0.19687 0.0246c-0.10828 0.0136-0.4213 0.025-0.69561 0.0254-0.77581 2e-3 -3.1201 0.17865-3.4857 0.26368-0.0784 0.0182-0.0935 7e-3 -0.071-0.0508z" fill="#a00"/>
   <path d="m57.706 263.5c-6.4652 0-12.452 2.5211-17.323 5.0353-2.9357 1.5153-5.5979 3.1342-7.7859 4.9414" fill="none" stroke="#000" stroke-width=".1"/>
   <path d="m36.921 274.34c-0.5644-0.0419-1.5042-0.18534-2.0474-0.31245-0.62043-0.14515-1.7768-0.51721-1.9099-0.6145-0.0764-0.0559-0.0227-0.11424 0.42561-0.46288 3.253-2.5298 9.0768-5.6356 13.785-7.3517 3.3871-1.2345 6.3811-1.8517 9.7877-2.0179l0.69561-0.0339v3.2141h-0.46199c-1.4546 0-3.6516 0.29948-5.0239 0.68485-1.9747 0.55446-3.1924 1.2325-6.4033 3.5652-3.0116 2.1879-4.5287 2.9588-6.3574 3.2303-0.56041 0.0832-1.9551 0.13854-2.4904 0.0988z" fill="#fff"/>
  </g>
  <g fill="#6495ed">
   <g stroke-width="1.9908">
    <path transform="matrix(.26458 0 0 .26458 107.54 241.74)" d="m-364.61 508.87v-75.204h150.99v150.41h-150.99zm112.1 46.811c12.927-3.286 23.603-13.962 26.889-26.889 1.1383-4.478 1.1383-13.711 0-18.189-3.2396-12.745-13.764-23.392-26.288-26.595-2.5388-0.64931-6.289-1.1806-8.3338-1.1806h-3.7178l2.0753-4.1209c2.1218-4.2133 2.1857-5.243 0.32539-5.243-0.70317 0-1.3752 0.83175-2.0098 2.4873-1.3942 3.6376-6.3614 11.137-9.3678 14.143-4.2532 4.2532-11.54 7.2322-23.079 9.4346-4.9311 0.94123-5.4245 1.1539-5.2533 2.2641 0.10391 0.67395 0.44604 1.1908 0.76028 1.1485s1.8197-0.25556 3.3455-0.47392l2.7741-0.39701-1.0801 2.5223c-1.8886 4.4104-3.0053 10.053-2.9964 15.142 0.018 10.277 3.4174 18.605 10.515 25.759 7.6161 7.6773 15.429 10.985 26.077 11.042 3.43 0.0183 7.3277-0.33771 9.3639-0.8553z"/>
    <path transform="matrix(.26458 0 0 .26458 107.54 241.74)" d="m-213.03 508.87v-75.204h150.41v150.41h-150.41zm56.499 46.797c15.867-4.0961 26.426-16.751 28.058-33.629 0.46019-4.7582-0.81424-12.252-2.8337-16.663-1.6599-3.6257-1.6812-3.6064 2.9899-2.7027 2.328 0.45035 2.4873 0.39737 2.4873-0.82722 0-1.1407-0.46868-1.3973-3.6578-2.0026-5.8564-1.1116-14.355-3.5119-17.75-5.0137-5.705-2.523-11.664-9.2614-15.568-17.604-1.6845-3.5997-3.0837-4.6967-3.7559-2.9448-0.1724 0.44928 0.49426 2.417 1.4815 4.3726 0.98722 1.9557 1.7949 3.695 1.7949 3.8651 0 0.17013-1.5672 0.30932-3.4826 0.30932-5.2474 0-9.1139 0.99486-15.179 3.9056-18.371 8.8163-25.74 30.997-16.493 49.644 4.8363 9.7516 13.552 16.753 24.035 19.309 4.4667 1.0888 13.621 1.0794 17.873-0.0183z"/>
    <path transform="matrix(.26458 0 0 .26458 107.54 241.74)" d="m-213.03 708.44c0-21.381 0.15679-27.214 0.73155-27.213 0.40236 2.7e-4 3.5462 0.2674 6.9864 0.59363 12.146 1.1518 20.416 4.5519 33.102 13.609 17.693 12.632 22.34 14.602 34.384 14.578 19.952-0.0412 34.875-9.8753 40.707-26.827 4.2104-12.238-0.44136-26.081-14.442-42.977-20.012-24.151-45.996-33.888-90.434-33.888h-11.035v-21.654h150.41v150.99h-150.41z"/>
    <path transform="matrix(.26458 0 0 .26458 107.54 241.74)" d="m-364.61 660.15v-75.496h150.99v21.487l-16.241 0.34578c-27.1 0.57699-42.345 3.5862-57.936 11.436-16.689 8.4027-33.607 26.041-40.502 42.228-5.747 13.49-3.008 27.323 7.4988 37.874 7.9164 7.9492 18.815 11.99 32.268 11.964 11.275-0.0217 16.848-2.4003 33.469-14.286 4.285-3.0642 9.2394-6.3788 11.01-7.3657 6.9223-3.8591 14.9-5.9942 25.604-6.8522l4.8283-0.38701v54.549h-150.99z"/>
   </g>
   <path transform="matrix(.26458 0 0 .26458 107.54 241.74)" d="m-212.88 711.94c0.0219-22.636 0.16124-29.965 0.57769-30.382 0.10694-0.10694 1.9329-0.0497 4.0577 0.12726 9.8331 0.81879 15.188 2.1377 22.041 5.4289 4.7774 2.2942 8.0044 4.2842 15.911 9.812 15.891 11.11 19.687 12.743 30.293 13.033 10.002 0.27355 17.024-1.1484 24.387-4.938 9.9663-5.1296 17.239-14.663 19.675-25.791 0.54694-2.4988 0.42282-8.1585-0.24833-11.324-2.216-10.452-9.9629-22.888-21.385-34.33-6.8767-6.8887-12.949-11.379-20.78-15.369-16.612-8.4616-35.978-12-65.676-12h-8.8763v-21.5h150.24v150.76h-150.24z" stroke-width=".89189"/>
   <path transform="matrix(.26458 0 0 .26458 107.54 241.74)" d="m-212.88 711.94c0.0219-22.636 0.16124-29.965 0.57769-30.382 0.10694-0.10694 1.9329-0.0497 4.0577 0.12726 14.942 1.2442 21.724 3.9128 36.991 14.555 13.42 9.3551 17.981 11.824 24.294 13.15 2.8215 0.59287 10.929 0.81522 14.839 0.40699 14.022-1.4637 25.074-8.112 31.564-18.987 5.7629-9.6572 6.5039-19.123 2.3164-29.595-5.2183-13.05-18.314-28.854-31.284-37.755-17.778-12.2-39.673-17.25-74.792-17.252l-8.587-3.9e-4v-21.5h150.24v150.76h-150.24z" stroke-width=".89189"/>
  </g>
 </g>
</svg>
